<?xml version="1.0" encoding="UTF-8"?>
<svg id="Calque_1" data-name="Calque 1" xmlns="http://www.w3.org/2000/svg" xmlns:xlink="http://www.w3.org/1999/xlink" viewBox="0 0 595.28 841.89">
  <defs>
    <style>
      .cls-1 {
        fill: #f6f6f6;
      }

      .cls-2 {
        fill: #fff;
      }

      .cls-3 {
        stroke: #3257a4;
        stroke-width: 5px;
      }

      .cls-3, .cls-4, .cls-5, .cls-6, .cls-7, .cls-8, .cls-9, .cls-10 {
        stroke-miterlimit: 10;
      }

      .cls-3, .cls-4, .cls-9 {
        fill: none;
      }

      .cls-4 {
        stroke-width: 9px;
      }

      .cls-4, .cls-7, .cls-10 {
        stroke: #293385;
      }

      .cls-5 {
        fill: url(#Dégradé_sans_nom_22);
      }

      .cls-5, .cls-6 {
        stroke: #d77633;
        stroke-width: 4px;
      }

      .cls-6 {
        fill: url(#Dégradé_sans_nom_22-2);
      }

      .cls-7 {
        fill: url(#Dégradé_sans_nom_119);
      }

      .cls-7, .cls-8 {
        stroke-width: 3px;
      }

      .cls-8 {
        fill: url(#Dégradé_sans_nom_119-2);
        stroke: url(#Dégradé_sans_nom_98);
      }

      .cls-9 {
        stroke: #4886c6;
      }

      .cls-9, .cls-10 {
        stroke-width: 2px;
      }

      .cls-10 {
        fill: #293385;
      }
    </style>
    <linearGradient id="Dégradé_sans_nom_119" data-name="Dégradé sans nom 119" x1="1750.85" y1="428.75" x2="1832.73" y2="428.75" gradientTransform="translate(2887.99 -21.64) rotate(179.93) scale(1.45 -.84)" gradientUnits="userSpaceOnUse">
      <stop offset="0" stop-color="#293385"/>
      <stop offset="0" stop-color="#293586"/>
      <stop offset="0" stop-color="#2d3d8d"/>
      <stop offset="0" stop-color="#324c98"/>
      <stop offset="0" stop-color="#3960a8"/>
      <stop offset="0" stop-color="#437abc"/>
      <stop offset="0" stop-color="#4886c6"/>
      <stop offset="1" stop-color="#3257a4"/>
    </linearGradient>
    <linearGradient id="Dégradé_sans_nom_119-2" data-name="Dégradé sans nom 119" x1="1757.95" y1="425.44" x2="1828.26" y2="425.44" gradientTransform="translate(3065.42 -28.71) rotate(179.93) scale(1.54 -.87)" xlink:href="#Dégradé_sans_nom_119"/>
    <linearGradient id="Dégradé_sans_nom_98" data-name="Dégradé sans nom 98" x1="1756.21" y1="425.47" x2="1829.9" y2="425.47" gradientTransform="translate(3065.42 -28.71) rotate(179.93) scale(1.54 -.87)" gradientUnits="userSpaceOnUse">
      <stop offset="0" stop-color="#293385"/>
      <stop offset=".38" stop-color="#3257a4"/>
      <stop offset=".79" stop-color="#4886c6"/>
    </linearGradient>
    <linearGradient id="Dégradé_sans_nom_22" data-name="Dégradé sans nom 22" x1="311.71" y1="397.22" x2="391.6" y2="397.22" gradientUnits="userSpaceOnUse">
      <stop offset="0" stop-color="#e28a3f"/>
      <stop offset=".65" stop-color="#e28a3f"/>
      <stop offset=".96" stop-color="#d6732a"/>
    </linearGradient>
    <linearGradient id="Dégradé_sans_nom_22-2" data-name="Dégradé sans nom 22" x1="268.18" y1="397.39" x2="348.07" y2="397.39" gradientTransform="translate(545.43) rotate(-180) scale(1 -1)" xlink:href="#Dégradé_sans_nom_22"/>
  </defs>
  <path class="cls-4" d="M396.39,518.97h-195.2c-4.3,0-7.36-3.84-6.07-7.62l26.78-118.4h148.27l30.1,121.16c.82,2.41-1.13,4.87-3.88,4.87Z"/>
  <polygon class="cls-3" points="394.65 514.53 197.36 514.53 227.57 397.39 366.76 397.39 394.65 514.53"/>
  <polygon class="cls-9" points="393.13 514.53 198.89 514.53 228.63 397.39 365.67 397.39 393.13 514.53"/>
  <path class="cls-7" d="M354.9,359.54l3.46-.11c-5.64-20.51-32.24-36.55-60.57-36.52-15.01.02-28.95,3.62-39.27,10.13-10.48,6.62-16.87,15.8-18.49,26.56l3.47.05c1.59-10.59,7.85-19.62,18.1-26.09,9.69-6.12,22.54-9.5,36.19-9.52,12.56-.02,25.38,3.6,36.1,10.17,10.9,6.69,18.36,15.68,21.01,25.32Z"/>
  <path class="cls-10" d="M268.77,401.15c2.75,0,5.59,2.17,6.31,4.82l14.47,53.13c.72,2.65,1.9,7,2.61,9.65l4.62,18.91c.6,2.68,1.22,4.88,1.36,4.88s.8-2.19,1.45-4.86l4.85-18.95c.74-2.65,1.93-6.99,2.64-9.64l14.31-53.12c.72-2.66,3.55-4.83,6.3-4.83h6.56c2.75,0,4.34,2.15,3.54,4.78l-31.26,102.15c-.8,2.63-3.71,4.78-6.46,4.78h-5.12c-2.75,0-5.64-2.16-6.42-4.79l-30.27-102.12c-.78-2.64.83-4.79,3.58-4.79h6.92Z"/>
  <path class="cls-8" d="M350.99,359.63l3.17-.09c-5.17-18.22-29.55-32.47-55.52-32.44-13.76.02-26.54,3.22-36,9-9.6,5.88-15.46,14.04-16.95,23.59l3.18.05c1.46-9.41,7.2-17.43,16.59-23.18,8.88-5.44,20.66-8.44,33.17-8.46,11.52-.01,23.27,3.19,33.09,9.04,9.99,5.94,16.83,13.93,19.25,22.49Z"/>
  <g>
    <path class="cls-5" d="M374.76,420.42c-4.04,6.78-11.94,5.29-15.19-.41-1.73,3.13-4.24,5-7.84,5.02-3.61.02-6.16-1.82-8.04-4.98-1.77,3.05-4.24,4.84-7.65,4.84-3.41,0-5.88-1.8-7.6-4.88-.32.49-.53.8-.73,1.11-2.2,3.28-5.84,4.68-9.55,3.65-3.51-.98-6.25-4.35-6.33-8.08-.1-4.37-.21-8.76.03-13.12.12-2.07,1.03-4.11,1.61-6.15,2.44-8.63,4.88-17.25,7.33-25.88.63-2.22.65-2.22,2.99-2.22,18.67,0,37.33,0,56,0,2.07,0,2.12.06,2.67,2,2.92,10.27,5.84,20.53,8.74,30.81.23.83.36,1.71.37,2.57.03,3.92.07,7.84,0,11.75-.12,6.62-7.36,10.85-12.96,7.5-1.45-.86-2.54-2.31-3.83-3.53Z"/>
    <path class="cls-1" d="M357.57,369.35c0,.61-.03,1.05,0,1.48.89,10.13,1.8,20.27,2.66,30.4.08.97.36,1.33,1.3,1.32,3.58-.05,7.16-.02,10.74-.04.41,0,.81-.07,1.39-.12-.27-1.49-.51-2.87-.77-4.24-1.76-9.22-3.53-18.43-5.27-27.65-.16-.86-.48-1.22-1.35-1.19-1.75.07-3.5.03-5.26.04-1.13,0-2.26,0-3.46,0Z"/>
    <path class="cls-2" d="M345.85,369.41c-.49-.03-.82-.08-1.15-.08-2.36-.01-4.72-.01-7.08-.02-1.7,0-1.69,0-2.03,1.78-1.74,9.1-3.48,18.2-5.22,27.3-.25,1.33-.49,2.66-.76,4.09.54.03.91.08,1.29.08,3.62,0,7.24-.03,10.85.02.94.01,1.22-.32,1.3-1.29.62-7.44,1.3-14.88,1.96-22.32.28-3.13.56-6.26.85-9.56Z"/>
    <path class="cls-1" d="M336.04,404.46h0c-1.87,0-3.73.03-5.6-.03-.95-.03-1.25.31-1.24,1.25.05,3.08.02,6.16.03,9.24,0,1.84.54,3.53,1.59,5.03,2.71,3.88,7.41,3.97,10.27.19,1.06-1.4,1.68-2.98,1.68-4.75.01-3.31,0-6.62.05-9.93.01-.83-.3-1.04-1.07-1.03-1.9.04-3.81.01-5.71.01Z"/>
    <path class="cls-1" d="M367.34,404.49c-1.87,0-3.74.03-5.6-.01-.85-.02-1.23.18-1.22,1.13.05,3.19-.02,6.39,0,9.59.02,2.05.68,3.92,2.07,5.43,1.54,1.68,3.43,2.64,5.82,2.16,2.99-.61,5.51-3.85,5.59-7.37.08-3.31,0-6.62.04-9.93,0-.75-.26-1.01-.99-1-1.9.03-3.81,0-5.72,0Z"/>
  </g>
  <g>
    <path class="cls-6" d="M214.2,420.6c4.04,6.78,11.94,5.29,15.19-.41,1.73,3.13,4.24,5,7.84,5.02,3.61.02,6.16-1.82,8.04-4.98,1.77,3.05,4.24,4.84,7.65,4.84,3.41,0,5.88-1.8,7.6-4.88.32.49.53.8.73,1.11,2.2,3.28,5.84,4.68,9.55,3.65,3.51-.98,6.25-4.35,6.33-8.08.1-4.37.21-8.76-.03-13.12-.12-2.07-1.03-4.11-1.61-6.15-2.44-8.63-4.88-17.25-7.33-25.88-.63-2.22-.65-2.22-2.99-2.22-18.67,0-37.33,0-56,0-2.07,0-2.12.06-2.67,2-2.92,10.27-5.84,20.53-8.74,30.81-.23.83-.36,1.71-.37,2.57-.03,3.92-.07,7.84,0,11.75.12,6.62,7.36,10.85,12.96,7.5,1.45-.86,2.54-2.31,3.83-3.53Z"/>
    <path class="cls-1" d="M231.39,369.53c0,.61.03,1.05,0,1.48-.89,10.13-1.8,20.27-2.66,30.4-.08.97-.36,1.33-1.3,1.32-3.58-.05-7.16-.02-10.74-.04-.41,0-.81-.07-1.39-.12.27-1.49.51-2.87.77-4.24,1.76-9.22,3.53-18.43,5.27-27.65.16-.86.48-1.22,1.35-1.19,1.75.07,3.5.03,5.26.04,1.13,0,2.26,0,3.46,0Z"/>
    <path class="cls-2" d="M243.11,369.59c.49-.03.82-.08,1.15-.08,2.36-.01,4.72-.01,7.08-.02,1.7,0,1.69,0,2.03,1.78,1.74,9.1,3.48,18.2,5.22,27.3.25,1.33.49,2.66.76,4.09-.54.03-.91.08-1.29.08-3.62,0-7.24-.03-10.85.02-.94.01-1.22-.32-1.3-1.29-.62-7.44-1.3-14.88-1.96-22.32-.28-3.13-.56-6.26-.85-9.56Z"/>
    <path class="cls-1" d="M252.92,404.63h0c1.87,0,3.73.03,5.6-.03.95-.03,1.25.31,1.24,1.25-.05,3.08-.02,6.16-.03,9.24,0,1.84-.54,3.53-1.59,5.03-2.71,3.88-7.41,3.97-10.27.19-1.06-1.4-1.68-2.98-1.68-4.75-.01-3.31,0-6.62-.05-9.93-.01-.83.3-1.04,1.07-1.03,1.9.04,3.81.01,5.71.01Z"/>
    <path class="cls-1" d="M221.62,404.67c1.87,0,3.74.03,5.6-.01.85-.02,1.23.18,1.22,1.13-.05,3.19.02,6.39,0,9.59-.02,2.05-.68,3.92-2.07,5.43-1.54,1.68-3.43,2.64-5.82,2.16-2.99-.61-5.51-3.85-5.59-7.37-.08-3.31,0-6.62-.04-9.93,0-.75.26-1.01.99-1,1.9.03,3.81,0,5.72,0Z"/>
  </g>
</svg>